# xmcd
#
# Track frame offsets:
#	150
#	16007
#	30323
#	44649
#	58497
#	71548
#	88982
#	107680
#	123446
#	139740
#
# Disc length: 2029 seconds
#
# Revision: 3212034405
# Processed by: cddbd v1.5.2PL0 Copyright (c) Steve Scherf et al.
# Submitted via: EZCDAudioConverter 8.5.0.1
#
DISCID=8a07eb0a
DTITLE=Justin Moore - Late Nights And Longnecks
DYEAR=2019
DGENRE=Country
TTITLE0=Why We Drink
TTITLE1=That's My Boy
TTITLE2=The Ones That Didn't Make It Back Home
TTITLE3=Jesus And Jack Daniels
TTITLE4=Airport Bar
TTITLE5=Small Town Street Cred
TTITLE6=Never Gonna Drink Again
TTITLE7=On The Rocks
TTITLE8=Someday I Gotta Quit
TTITLE9=Good Times Don't
EXTD=
EXTT0=
EXTT1=
EXTT2=
EXTT3=
EXTT4=
EXTT5=
EXTT6=
EXTT7=
EXTT8=
EXTT9=
PLAYORDER=
